<svg width="219" height="114" viewBox="0 0 219 114" fill="none" xmlns="http://www.w3.org/2000/svg">
<path d="M3.9 94C3.9 90.8667 4.13333 88.0667 4.6 85.6C5.06667 83.1333 5.86667 80.9 7 78.9C8.13333 76.8333 9.66667 74.9333 11.6 73.2C13.5333 71.4667 15.9667 69.7667 18.9 68.1C22.0333 66.3667 24.6333 64.9333 26.7 63.8C28.8333 62.6667 30.5 61.6667 31.7 60.8C32.9667 59.9333 33.8667 59.1667 34.4 58.5C34.9333 57.7667 35.2 56.9333 35.2 56C35.2 54.1333 34.5333 52.6333 33.2 51.5C31.8667 50.3667 29.9667 49.8 27.5 49.8C24.7 49.8 22.2667 50.5 20.2 51.9C18.1333 53.2333 16.1333 55 14.2 57.2L4 45.4C5.06667 44.2 6.5 43.0333 8.3 41.9C10.1 40.7667 12.1333 39.7667 14.4 38.9C16.6667 37.9667 19.1333 37.2333 21.8 36.7C24.5333 36.1667 27.3667 35.9 30.3 35.9C37.5 35.9 43 37.4667 46.8 40.6C50.6667 43.7333 52.6 47.9667 52.6 53.3C52.6 55.5 52.2333 57.4667 51.5 59.2C50.8333 60.9333 49.9333 62.5 48.8 63.9C47.6667 65.2333 46.4 66.4333 45 67.5C43.6 68.5 42.1667 69.4333 40.7 70.3C39.7 70.9 38.5 71.6 37.1 72.4C35.7 73.2 34.3 74.0333 32.9 74.9C31.5667 75.7 30.3 76.5333 29.1 77.4C27.9667 78.2 27.1 78.9333 26.5 79.6H53.7V94H3.9ZM87.3078 106.7V93H59.8078V78.7L92.4078 36.9H103.308V78.6H112.108V93H103.308V106.7H87.3078ZM75.6078 78.6H89.2078V60.9L75.6078 78.6Z" fill="white"/>
<rect x="133" y="20" width="5" height="90" fill="white"/>
<path d="M169.01 42.37V46H154.22V24.7H168.74V28.33H158.36V33.46H167.33V36.82H158.36V42.37H169.01ZM174.428 24.7L179.738 32.62L185.018 24.7H189.488L181.898 35.5L189.248 46H184.778L179.738 38.38L174.668 46H170.168L177.518 35.5L169.928 24.7H174.428ZM154.22 76V54.7H163.25C164.23 54.7 165.13 54.91 165.95 55.33C166.79 55.73 167.51 56.27 168.11 56.95C168.71 57.61 169.18 58.37 169.52 59.23C169.86 60.07 170.03 60.92 170.03 61.78C170.03 62.68 169.87 63.56 169.55 64.42C169.23 65.26 168.78 66.01 168.2 66.67C167.62 67.33 166.92 67.86 166.1 68.26C165.28 68.66 164.38 68.86 163.4 68.86H158.36V76H154.22ZM158.36 65.23H163.16C163.92 65.23 164.55 64.92 165.05 64.3C165.57 63.68 165.83 62.84 165.83 61.78C165.83 61.24 165.75 60.76 165.59 60.34C165.43 59.9 165.22 59.53 164.96 59.23C164.7 58.93 164.39 58.71 164.03 58.57C163.69 58.41 163.34 58.33 162.98 58.33H158.36V65.23ZM172.911 76V54.7H177.051V72.37H187.911V76H172.911ZM198.173 76.15C196.613 76.15 195.193 75.85 193.913 75.25C192.653 74.63 191.563 73.82 190.643 72.82C189.743 71.8 189.043 70.64 188.543 69.34C188.043 68.04 187.793 66.71 187.793 65.35C187.793 63.93 188.053 62.57 188.573 61.27C189.113 59.97 189.843 58.82 190.763 57.82C191.703 56.82 192.813 56.03 194.093 55.45C195.373 54.85 196.763 54.55 198.263 54.55C199.803 54.55 201.203 54.87 202.463 55.51C203.743 56.13 204.833 56.95 205.733 57.97C206.633 58.99 207.333 60.15 207.833 61.45C208.333 62.75 208.583 64.07 208.583 65.41C208.583 66.83 208.323 68.19 207.803 69.49C207.283 70.77 206.563 71.91 205.643 72.91C204.723 73.89 203.623 74.68 202.343 75.28C201.063 75.86 199.673 76.15 198.173 76.15ZM191.993 65.35C191.993 66.27 192.133 67.16 192.413 68.02C192.693 68.88 193.093 69.64 193.613 70.3C194.153 70.96 194.803 71.49 195.563 71.89C196.343 72.29 197.223 72.49 198.203 72.49C199.203 72.49 200.083 72.29 200.843 71.89C201.623 71.47 202.273 70.92 202.793 70.24C203.333 69.56 203.733 68.8 203.993 67.96C204.273 67.1 204.413 66.23 204.413 65.35C204.413 64.43 204.263 63.54 203.963 62.68C203.683 61.82 203.273 61.06 202.733 60.4C202.213 59.74 201.563 59.22 200.783 58.84C200.023 58.44 199.163 58.24 198.203 58.24C197.203 58.24 196.313 58.45 195.533 58.87C194.753 59.27 194.103 59.81 193.583 60.49C193.063 61.15 192.663 61.91 192.383 62.77C192.123 63.61 191.993 64.47 191.993 65.35ZM154.22 106V84.7H163.64C164.62 84.7 165.52 84.91 166.34 85.33C167.18 85.73 167.9 86.27 168.5 86.95C169.1 87.61 169.57 88.37 169.91 89.23C170.25 90.07 170.42 90.92 170.42 91.78C170.42 93.16 170.07 94.42 169.37 95.56C168.69 96.68 167.76 97.49 166.58 97.99L171.44 106H166.79L162.44 98.86H158.36V106H154.22ZM158.36 95.23H163.55C163.93 95.23 164.28 95.14 164.6 94.96C164.94 94.78 165.23 94.54 165.47 94.24C165.71 93.92 165.9 93.55 166.04 93.13C166.18 92.71 166.25 92.26 166.25 91.78C166.25 91.28 166.17 90.82 166.01 90.4C165.85 89.98 165.63 89.62 165.35 89.32C165.09 89 164.78 88.76 164.42 88.6C164.08 88.42 163.73 88.33 163.37 88.33H158.36V95.23ZM188.961 102.37V106H174.171V84.7H188.691V88.33H178.311V93.46H187.281V96.82H178.311V102.37H188.961Z" fill="white"/>
</svg>
